<svg xmlns="http://www.w3.org/2000/svg" width="114" height="25" viewBox="0 0 114 25" fill="none"><circle cx="58.7434" cy="15.3192" r="7.02128" stroke="#222C47" stroke-width="3.31915"></circle><path d="M99.8865 9.30127C100.697 8.48033 101.668 7.83465 102.738 7.40425C104.811 6.56341 107.13 6.56341 109.203 7.40425C110.272 7.83345 111.242 8.47735 112.052 9.29616L113.237 10.4834L110.865 12.8936L109.642 11.7064C109.152 11.2118 108.567 10.8218 107.921 10.56C106.671 10.0494 105.27 10.0494 104.02 10.56C103.374 10.8211 102.787 11.2112 102.297 11.7064C101.796 12.1777 101.405 12.7529 101.15 13.3915C100.64 14.6418 100.64 16.0424 101.15 17.2928C101.41 17.9392 101.8 18.5251 102.297 19.0136C102.772 19.5066 103.343 19.8969 103.975 20.1604C104.607 20.4239 105.286 20.555 105.971 20.5455C106.652 20.5478 107.327 20.4204 107.96 20.1702C108.597 19.9139 109.171 19.5218 109.642 19.0213L110.865 17.8366L113.237 20.2468L112.052 21.4315C111.243 22.2518 110.273 22.8967 109.203 23.326C107.13 24.1668 104.811 24.1668 102.738 23.326C101.668 22.8973 100.697 22.2524 99.8865 21.4315C99.0716 20.6284 98.4332 19.664 98.0125 18.6C97.199 16.5219 97.199 14.2134 98.0125 12.1353C98.4339 11.0717 99.0721 10.1074 99.8865 9.30382V9.30127Z" fill="#222C47"></path><path d="M92.6204 19.0953C91.8646 19.867 90.8835 20.3791 89.8182 20.5581C88.7529 20.737 87.6584 20.5735 86.6919 20.0911L96.2153 10.5651L95.0306 9.37788C94.2232 8.56023 93.257 7.91639 92.1915 7.48597C90.1201 6.64176 87.8007 6.64176 85.7293 7.48597C84.6593 7.91486 83.6886 8.55878 82.8774 9.37788C82.063 10.1815 81.4248 11.1457 81.0034 12.2094C80.5992 13.2329 80.3913 14.3234 80.3906 15.4238C80.3927 16.53 80.6004 17.6261 81.0034 18.6562C81.4207 19.7272 82.0593 20.6982 82.8774 21.5055C83.6747 22.3072 84.6225 22.9434 85.6664 23.3775C86.7104 23.8117 87.8298 24.0351 88.9604 24.0351C90.091 24.0351 91.2105 23.8117 92.2544 23.3775C93.2983 22.9434 94.2462 22.3072 95.0434 21.5055L96.2281 20.3209L93.8179 17.9081L92.6204 19.0953ZM84.2766 17.6809C83.7947 16.7128 83.6317 15.617 83.811 14.5505C83.9904 13.4841 84.5028 12.5019 85.2749 11.7447C86.0374 10.9566 87.041 10.4454 88.1268 10.2919C89.1805 10.1371 90.2562 10.3157 91.2034 10.8026C90.8459 11.16 90.343 11.657 89.6945 12.2936C89.0459 12.9302 88.3702 13.5983 87.6672 14.2979C86.9659 14.9975 86.303 15.6604 85.6783 16.2868L84.2766 17.6809Z" fill="#222C47"></path><path d="M79.1177 20.663V24.0664H77.4351C76.2948 24.0717 75.1653 23.844 74.116 23.3974C72.042 22.5212 70.3895 20.8733 69.5075 18.8017C69.0603 17.7525 68.8318 16.6231 68.836 15.4826V0H72.242V10.3353H79.1356V13.7387H72.242V15.4596C72.2326 16.4851 72.5297 17.4901 73.0951 18.3457C73.6605 19.2013 74.4685 19.8686 75.4156 20.2621C76.0588 20.5295 76.7488 20.6658 77.4454 20.663H79.1177Z" fill="#222C47"></path><path d="M50.2212 6.77878V10.1822H48.4978C47.8081 10.1762 47.1247 10.3136 46.491 10.5856C45.8754 10.8448 45.3161 11.2211 44.8442 11.6937C44.3739 12.1666 43.9979 12.7246 43.7361 13.3379C43.4664 13.9732 43.3299 14.6571 43.3352 15.3473V23.9541H39.891V15.3473C39.8805 14.1973 40.1082 13.0577 40.5599 12.0001C40.9958 10.9823 41.6263 10.0595 42.4161 9.28346C43.2099 8.50264 44.1447 7.87969 45.171 7.44772C46.2202 7.001 47.3497 6.77337 48.4901 6.77878H50.2212Z" fill="#222C47"></path><path d="M38.8967 6.77872V15.3472C38.9012 16.4878 38.6727 17.6173 38.2252 18.6664C37.7915 19.696 37.1619 20.6316 36.3716 21.4213C35.5858 22.2087 34.6568 22.8388 33.6345 23.2774C32.0607 23.9457 30.3225 24.126 28.6451 23.7951C26.9676 23.4641 25.4281 22.6372 24.226 21.4213C23.4444 20.6276 22.8206 19.6927 22.3877 18.6664C21.9425 17.6167 21.7149 16.4875 21.7188 15.3472V6.77872H25.1248V15.3472C25.1216 16.0318 25.2535 16.7102 25.5128 17.3437C25.7722 17.9772 26.1539 18.5534 26.6362 19.0391C27.1067 19.5124 27.6653 19.8888 28.2805 20.1472C28.9149 20.417 29.598 20.5534 30.2873 20.5481C30.9832 20.5524 31.6727 20.416 32.3145 20.1472C32.9375 19.892 33.5034 19.5153 33.9792 19.0391C34.4615 18.5534 34.8433 17.9772 35.1026 17.3437C35.362 16.7102 35.4939 16.0318 35.4907 15.3472V6.77872H38.8967Z" fill="#222C47"></path><path d="M21.0179 23.8672H10.5166C8.71915 23.8672 7.3234 23.7064 6.32936 23.3847C4.1166 22.6698 2.47234 21.2077 1.3966 18.9983C0.465532 17.1089 0 14.8281 0 12.1557C0 8.03489 0.789787 4.94894 2.36936 2.89787C4.10043 0.66383 6.86043 0 10.6468 0H38.8085V3.72766H10.7438C8.51745 3.72766 6.97021 4.62638 6.10213 6.42383C5.49787 7.71234 5.19489 9.69277 5.19319 12.3651C5.19319 14.806 5.53957 16.5677 6.23234 17.6502C7.05447 18.9626 8.5583 19.6187 10.7438 19.6187H21.0179V23.8672Z" fill="#222C47"></path></svg>